<svg width="190" height="131" viewBox="0 0 190 131" fill="none" xmlns="http://www.w3.org/2000/svg">
<g id="NoDocuments">
<path id="Background" fill-rule="evenodd" clip-rule="evenodd" d="M171 29.5C174.866 29.5 178 32.634 178 36.5C178 40.366 174.866 43.5 171 43.5H131C134.866 43.5 138 46.634 138 50.5C138 54.366 134.866 57.5 131 57.5H153C156.866 57.5 160 60.634 160 64.5C160 68.366 156.866 71.5 153 71.5H142.826C137.952 71.5 134 74.634 134 78.5C134 81.0773 136 83.4107 140 85.5C143.866 85.5 147 88.634 147 92.5C147 96.366 143.866 99.5 140 99.5H57C53.134 99.5 50 96.366 50 92.5C50 88.634 53.134 85.5 57 85.5H18C14.134 85.5 11 82.366 11 78.5C11 74.634 14.134 71.5 18 71.5H58C61.866 71.5 65 68.366 65 64.5C65 60.634 61.866 57.5 58 57.5H33C29.134 57.5 26 54.366 26 50.5C26 46.634 29.134 43.5 33 43.5H73C69.134 43.5 66 40.366 66 36.5C66 32.634 69.134 29.5 73 29.5H171ZM171 57.5C174.866 57.5 178 60.634 178 64.5C178 68.366 174.866 71.5 171 71.5C167.134 71.5 164 68.366 164 64.5C164 60.634 167.134 57.5 171 57.5Z" fill="#F3F7FF"/>
<g id="Shape">
<path fill-rule="evenodd" clip-rule="evenodd" d="M117.672 28.5002L126.974 96.3429L127.809 103.149C128.079 105.342 126.519 107.338 124.327 107.607L65.7665 114.797C63.5738 115.066 61.578 113.507 61.3088 111.314L52.2931 37.8869C52.1584 36.7906 52.9381 35.7927 54.0344 35.6581C54.0413 35.6573 54.0483 35.6565 54.0552 35.6557L58.9136 35.1107M62.8421 34.67L67.4291 34.1555L62.8421 34.67Z" fill="white"/>
<path d="M118.91 28.3304C118.816 27.6464 118.186 27.168 117.502 27.2618C116.818 27.3556 116.34 27.986 116.433 28.67L118.91 28.3304ZM126.974 96.3429L128.214 96.1906C128.214 96.1848 128.213 96.1789 128.212 96.1731L126.974 96.3429ZM127.809 103.149L129.05 102.997L127.809 103.149ZM124.327 107.607L124.479 108.848L124.327 107.607ZM65.7665 114.797L65.9188 116.038L65.7665 114.797ZM61.3088 111.314L62.5495 111.162L61.3088 111.314ZM52.2931 37.8869L53.5337 37.7346L52.2931 37.8869ZM54.0552 35.6557L54.1945 36.8979L54.0552 35.6557ZM59.0529 36.3529C59.739 36.2759 60.2327 35.6574 60.1558 34.9713C60.0788 34.2853 59.4603 33.7915 58.7742 33.8685L59.0529 36.3529ZM62.7028 33.4278C62.0167 33.5048 61.5229 34.1233 61.5999 34.8094C61.6768 35.4954 62.2954 35.9892 62.9814 35.9122L62.7028 33.4278ZM67.5685 35.3977C68.2545 35.3207 68.7483 34.7022 68.6714 34.0161C68.5944 33.3301 67.9759 32.8363 67.2898 32.9133L67.5685 35.3977ZM116.433 28.67L125.735 96.5127L128.212 96.1731L118.91 28.3304L116.433 28.67ZM125.733 96.4953L126.569 103.302L129.05 102.997L128.214 96.1906L125.733 96.4953ZM126.569 103.302C126.754 104.809 125.682 106.181 124.174 106.366L124.479 108.848C127.357 108.494 129.403 105.875 129.05 102.997L126.569 103.302ZM124.174 106.366L65.6141 113.557L65.9188 116.038L124.479 108.848L124.174 106.366ZM65.6141 113.557C64.1067 113.742 62.7346 112.67 62.5495 111.162L60.0681 111.467C60.4215 114.345 63.0409 116.391 65.9188 116.038L65.6141 113.557ZM62.5495 111.162L53.5337 37.7346L51.0524 38.0393L60.0681 111.467L62.5495 111.162ZM53.5337 37.7346C53.4833 37.3235 53.7756 36.9493 54.1867 36.8988L53.8821 34.4174C52.1005 34.6362 50.8336 36.2577 51.0524 38.0393L53.5337 37.7346ZM54.1867 36.8988C54.1893 36.8985 54.1919 36.8982 54.1945 36.8979L53.9159 34.4135C53.9046 34.4147 53.8933 34.4161 53.8821 34.4174L54.1867 36.8988ZM54.1945 36.8979L59.0529 36.3529L58.7742 33.8685L53.9159 34.4135L54.1945 36.8979ZM62.9814 35.9122L67.5685 35.3977L67.2898 32.9133L62.7028 33.4278L62.9814 35.9122Z" fill="#6271DD"/>
</g>
<path id="Rectangle" fill-rule="evenodd" clip-rule="evenodd" d="M115.14 32.7691L123.56 94.2528L124.317 100.421C124.561 102.408 123.167 104.214 121.203 104.456L68.7613 110.895C66.7977 111.136 65.0081 109.72 64.7641 107.733L56.6141 41.3567C56.4795 40.2603 57.2591 39.2625 58.3555 39.1278L64.8431 38.3313" fill="#E8F0FE"/>
<path id="Rectangle_2" d="M71.9219 18.5C71.9219 16.9812 73.1531 15.75 74.6719 15.75H120.229C120.958 15.75 121.657 16.0395 122.173 16.5549L135.616 29.9898C136.132 30.5056 136.422 31.2053 136.422 31.9349V94.5C136.422 96.0188 135.191 97.25 133.672 97.25H74.6719C73.1531 97.25 71.9219 96.0188 71.9219 94.5V18.5Z" fill="white" stroke="#6271DD" stroke-width="2.5"/>
<path id="Shape_2" d="M120.672 16.9028V28.5C120.672 30.1569 122.015 31.5 123.672 31.5H131.605" stroke="#6271DD" stroke-width="2.5" stroke-linecap="round" stroke-linejoin="round"/>
<path id="lines" d="M82 82.5H108M82 31.5H108H82ZM82 43.5H125H82ZM82 56.5H125H82ZM82 69.5H125H82Z" stroke="#75A4FE" stroke-width="2.5" stroke-linecap="round" stroke-linejoin="round"/>
</g>
</svg>
