<svg width="190" height="131" viewBox="0 0 190 131" fill="none" xmlns="http://www.w3.org/2000/svg">
<g id="NoSearchResult">
<path id="Background" fill-rule="evenodd" clip-rule="evenodd" d="M171 22.5C174.866 22.5 178 25.634 178 29.5C178 33.366 174.866 36.5 171 36.5H131C134.866 36.5 138 39.634 138 43.5C138 47.366 134.866 50.5 131 50.5H153C156.866 50.5 160 53.634 160 57.5C160 61.366 156.866 64.5 153 64.5H142.826C137.952 64.5 134 67.634 134 71.5C134 74.0773 136 76.4107 140 78.5C143.866 78.5 147 81.634 147 85.5C147 89.366 143.866 92.5 140 92.5H57C53.134 92.5 50 89.366 50 85.5C50 81.634 53.134 78.5 57 78.5H18C14.134 78.5 11 75.366 11 71.5C11 67.634 14.134 64.5 18 64.5H58C61.866 64.5 65 61.366 65 57.5C65 53.634 61.866 50.5 58 50.5H33C29.134 50.5 26 47.366 26 43.5C26 39.634 29.134 36.5 33 36.5H73C69.134 36.5 66 33.366 66 29.5C66 25.634 69.134 22.5 73 22.5H171ZM171 50.5C174.866 50.5 178 53.634 178 57.5C178 61.366 174.866 64.5 171 64.5C167.134 64.5 164 61.366 164 57.5C164 53.634 167.134 50.5 171 50.5Z" fill="#F3F7FF"/>
<g id="Search">
<path id="Oval" d="M84.5 90.5C103.002 90.5 118 75.5015 118 57C118 38.4985 103.002 23.5 84.5 23.5C65.9985 23.5 51 38.4985 51 57C51 75.5015 65.9985 90.5 84.5 90.5Z" fill="#F3F7FF" stroke="#7F56DA" stroke-width="2.5"/>
<g id="Oval_2">
<path fill-rule="evenodd" clip-rule="evenodd" d="M79.1321 82.9939C80.8908 83.3185 82.6801 83.4872 84.5 83.5C99.1355 83.5 111 71.6355 111 57C111 42.3645 99.1355 30.5 84.5 30.5C80.7404 30.5 77.1636 31.2829 73.9238 32.6946C68.2938 35.1479 63.6816 39.4999 60.896 44.9419C59.0445 48.5589 58 52.6575 58 57C58 60.94 58.8599 64.6792 60.4021 68.0401C61.5032 70.4396 62.9521 72.6463 64.6843 74.5956" fill="white"/>
<path d="M79.1321 82.9939C80.8908 83.3185 82.6801 83.4872 84.5 83.5C99.1355 83.5 111 71.6355 111 57C111 42.3645 99.1355 30.5 84.5 30.5C80.7404 30.5 77.1636 31.2829 73.9238 32.6946C68.2938 35.1479 63.6816 39.4999 60.896 44.9419C59.0445 48.5589 58 52.6575 58 57C58 60.94 58.8599 64.6792 60.4021 68.0401C61.5032 70.4396 62.9521 72.6463 64.6843 74.5956" stroke="#7F56DA" stroke-width="2.5" stroke-linecap="round"/>
</g>
<path id="Oval_3" d="M67.7974 77.5747C69.9455 79.3207 72.3723 80.737 75.0008 81.7466" stroke="#7F56DA" stroke-width="2.5" stroke-linecap="round"/>
<path id="Path-4" d="M112 83.5L118 89.5" stroke="#7F56DA" stroke-width="2.5"/>
<path id="Rectangle" fill-rule="evenodd" clip-rule="evenodd" d="M117.03 88.5303C115.138 90.423 115.138 93.4917 117.03 95.3844L128.116 106.47C130.008 108.362 133.077 108.362 134.97 106.47C136.863 104.577 136.863 101.508 134.97 99.6156L123.885 88.5303C121.992 86.6376 118.923 86.6376 117.03 88.5303Z" fill="#E8F0FE" stroke="#7F56DA" stroke-width="2.5"/>
<path id="Line" d="M122 90.5L133 101.5" stroke="white" stroke-width="2.5" stroke-linecap="round"/>
<path id="Oval-3" fill-rule="evenodd" clip-rule="evenodd" d="M78 45.5C78 57.098 87.4021 66.5 99 66.5C101.278 66.5 103.472 66.1372 105.526 65.4662C102.173 73.7871 94.0225 79.6607 84.5 79.6607C71.9849 79.6607 61.8394 69.5152 61.8394 57C61.8394 45.6596 70.1697 36.2648 81.045 34.6011C79.113 37.7793 78 41.5097 78 45.5Z" fill="#E8F0FE"/>
<path id="Shape" d="M85 38.5C83.7266 38.5 82.4825 38.6253 81.2793 38.8642M77.6447 39.9761C70.8039 42.8508 66 49.6144 66 57.5" stroke="#75A4FE" stroke-width="2.5" stroke-linecap="round"/>
</g>
<path id="Line-8" d="M138.176 57.2773H130M144.5 49.5H127.324H144.5ZM151.5 49.5H149.279H151.5Z" stroke="#75A4FE" stroke-width="2.5" stroke-linecap="round" stroke-linejoin="round"/>
<path id="Line-8_2" d="M48.1758 79.2773H40M43.5 70.5H26.3242H43.5ZM20.5 70.5H16.2788H20.5Z" stroke="#75A4FE" stroke-width="2.5" stroke-linecap="round" stroke-linejoin="round"/>
</g>
</svg>
