<svg width="190" height="131" viewBox="0 0 190 131" fill="none" xmlns="http://www.w3.org/2000/svg">
<g id="NoTasks">
<path id="Background" fill-rule="evenodd" clip-rule="evenodd" d="M171 35.5C174.866 35.5 178 38.634 178 42.5C178 46.366 174.866 49.5 171 49.5H131C134.866 49.5 138 52.634 138 56.5C138 60.366 134.866 63.5 131 63.5H153C156.866 63.5 160 66.634 160 70.5C160 74.366 156.866 77.5 153 77.5H142.826C137.952 77.5 134 80.634 134 84.5C134 87.0773 136 89.4107 140 91.5C143.866 91.5 147 94.634 147 98.5C147 102.366 143.866 105.5 140 105.5H57C53.134 105.5 50 102.366 50 98.5C50 94.634 53.134 91.5 57 91.5H18C14.134 91.5 11 88.366 11 84.5C11 80.634 14.134 77.5 18 77.5H58C61.866 77.5 65 74.366 65 70.5C65 66.634 61.866 63.5 58 63.5H33C29.134 63.5 26 60.366 26 56.5C26 52.634 29.134 49.5 33 49.5H73C69.134 49.5 66 46.366 66 42.5C66 38.634 69.134 35.5 73 35.5H171ZM171 63.5C174.866 63.5 178 66.634 178 70.5C178 74.366 174.866 77.5 171 77.5C167.134 77.5 164 74.366 164 70.5C164 66.634 167.134 63.5 171 63.5Z" fill="#F3F7FF"/>
<path id="Shape" fill-rule="evenodd" clip-rule="evenodd" d="M63.942 103.692L65.432 103.641V124.64C65.432 125.115 65.8188 125.5 66.296 125.5H118.136C118.613 125.5 119 125.115 119 124.64V52.655C119 50.9126 117.582 49.5 115.832 49.5H68.6C66.8504 49.5 65.432 50.9126 65.432 52.655V67.6227L63.942 67.5711C63.767 67.565 63.5917 67.562 63.416 67.562C54.3809 67.562 47 75.6241 47 85.6318C47 95.6395 54.3809 103.702 63.416 103.702C63.5917 103.702 63.767 103.699 63.942 103.692ZM64.1072 96.7903C63.8778 96.8086 63.6473 96.8178 63.416 96.8178C57.9625 96.8178 53.6432 91.763 53.6432 85.6318C53.6432 79.5006 57.9625 74.4457 63.416 74.4457C63.6473 74.4457 63.8778 74.4549 64.1072 74.4733L65.432 74.5791V96.6844L64.1072 96.7903Z" fill="white" stroke="#7F56DA" stroke-width="2.5" stroke-linejoin="round"/>
<path id="line" d="M111 55.6816V74M111 79.6816V84.4248V79.6816Z" stroke="#75A4FE" stroke-width="2.5" stroke-linecap="round" stroke-linejoin="round"/>
<path id="ground_line" d="M31.1279 117.5H38M145.128 117.5H148M125 117.5H140.428M44 117.5H61.4541" stroke="#7F56DA" stroke-width="2.5" stroke-linecap="round" stroke-linejoin="round"/>
<path id="line_2" d="M92 5.5C89.3333 9.71354 88 13.3802 88 16.5C88 22.0562 92.6538 24.5444 92.6538 30.563C92.6538 33.6177 91.1025 36.6507 88 39.6621" stroke="#75A4FE" stroke-width="2.5" stroke-linecap="round"/>
<path id="line_3" d="M80.0001 16.5C79.1276 22.0127 83.0001 23.0322 83.0001 27.9746C83.0001 30.4831 82.0001 32.9915 80.0001 35.5" stroke="#75A4FE" stroke-width="2.5" stroke-linecap="round"/>
<path id="line_4" d="M98.7955 13.9741C97.4744 17.3933 98.2166 19.4774 98.7955 20.7041C100.033 23.3262 102 25.5896 102 28.2578C102 31.3568 100.932 34.3392 98.7955 37.2051" stroke="#75A4FE" stroke-width="2.5" stroke-linecap="round"/>
<path id="Rectangle 3" d="M69 54.5C69 53.9477 69.4477 53.5 70 53.5L89 53.5V122.5H70C69.4477 122.5 69 122.052 69 121.5V54.5Z" fill="#E8F0FE"/>
</g>
</svg>
